# xmcd
#
# Track frame offsets:
#	150
#	21421
#	32429
#	41489
#	57771
#	78093
#	95037
#	113417
#	131894
#	151219
#	171302
#	190681
#	207657
#	226868
#	233063
#
# Disc length: 3404 seconds
#
# Revision: 0
# Processed by: cddbd v1.5.1PL0 Copyright (c) Steve Scherf et al.
# Submitted via: audiograbber 1.83.01
#
DISCID=ba0d4a0f
DTITLE=Joe McMurrian - Dredge
DYEAR=2005
DGENRE=Blues
TTITLE0=Hardum Hills
TTITLE1=Catfish (traditional)
TTITLE2=Seeli (traditional)
TTITLE3=Old Clothes in a flicker
TTITLE4=Travl'n riverside Tumble (traditional)
TTITLE5=Gentle Man Blues
TTITLE6=Rope is Thin
TTITLE7=Glory Land
TTITLE8=Cypress Box Glow
TTITLE9=Coo Coo (traditional, Ashley)
TTITLE10=Thousand Miles (Williams)
TTITLE11=Dirty Business (Hurt)
TTITLE12=Boat of Stone
TTITLE13=Dredge
TTITLE14=Death Letter (House)
EXTD=
EXTT0=
EXTT1=
EXTT2=
EXTT3=
EXTT4=
EXTT5=
EXTT6=
EXTT7=
EXTT8=
EXTT9=
EXTT10=
EXTT11=
EXTT12=
EXTT13=
EXTT14=
PLAYORDER=
